<svg xmlns="http://www.w3.org/2000/svg" width="1200" height="1080" viewBox="0 0 1200 1080">
<rect width="1200" height="1080" fill="white"/>
<style>text{font-family:sans-serif;fill:#172033;font-size:14px}.small{font-size:12px}.title{font-size:21px;font-weight:bold}</style>
<text x="35" y="35" class="title" text-anchor="start">Estimated contributor concentration · Q1</text>
<text x="35" y="59" class="small" text-anchor="start">Snapshot 0d1f50007f9b | 39 estimated people | 17,167 commits | bot/unresolved excluded</text>
<text x="35" y="88" class="" text-anchor="start">Top 15 contributors · linear scale · full ranking and alias mapping in CSV</text>
<path d="M180.0 120 V645" stroke="#e5e7eb"/>
<text x="180.0" y="113" class="small" text-anchor="middle">0</text>
<path d="M294.2857142857143 120 V645" stroke="#e5e7eb"/>
<text x="294.2857142857143" y="113" class="small" text-anchor="middle">1000</text>
<path d="M408.57142857142856 120 V645" stroke="#e5e7eb"/>
<text x="408.57142857142856" y="113" class="small" text-anchor="middle">2000</text>
<path d="M522.8571428571429 120 V645" stroke="#e5e7eb"/>
<text x="522.8571428571429" y="113" class="small" text-anchor="middle">3000</text>
<path d="M637.1428571428571 120 V645" stroke="#e5e7eb"/>
<text x="637.1428571428571" y="113" class="small" text-anchor="middle">4000</text>
<path d="M751.4285714285714 120 V645" stroke="#e5e7eb"/>
<text x="751.4285714285714" y="113" class="small" text-anchor="middle">5000</text>
<path d="M865.7142857142857 120 V645" stroke="#e5e7eb"/>
<text x="865.7142857142857" y="113" class="small" text-anchor="middle">6000</text>
<text x="165" y="146" class="" text-anchor="end">Tianyi Cui</text>
<rect x="180" y="130" width="334.9714285714286" height="23" fill="#2563eb"/><rect x="514.9714285714285" y="130" width="374.8571428571429" height="23" fill="#93c5fd"/>
<text x="899.8285714285714" y="146" class="small" text-anchor="start">6,211 (36.2%)</text>
<text x="165" y="180" class="" text-anchor="end">imccyu</text>
<rect x="180" y="164" width="169.25714285714287" height="23" fill="#2563eb"/><rect x="349.25714285714287" y="164" width="54.285714285714285" height="23" fill="#93c5fd"/>
<text x="413.54285714285714" y="180" class="small" text-anchor="start">1,956 (11.4%)</text>
<text x="165" y="214" class="" text-anchor="end">Yichen Jiang</text>
<rect x="180" y="198" width="115.31428571428573" height="23" fill="#2563eb"/><rect x="295.31428571428575" y="198" width="101.37142857142858" height="23" fill="#93c5fd"/>
<text x="406.6857142857143" y="214" class="small" text-anchor="start">1,896 (11.0%)</text>
<text x="165" y="248" class="" text-anchor="end">Chinesezjc</text>
<rect x="180" y="232" width="77.25714285714285" height="23" fill="#2563eb"/><rect x="257.25714285714287" y="232" width="40.457142857142856" height="23" fill="#93c5fd"/>
<text x="307.7142857142857" y="248" class="small" text-anchor="start">1,030 (6.0%)</text>
<text x="165" y="282" class="" text-anchor="end">_Kerman</text>
<rect x="180" y="266" width="68.34285714285714" height="23" fill="#2563eb"/><rect x="248.34285714285716" y="266" width="34.62857142857143" height="23" fill="#93c5fd"/>
<text x="292.9714285714286" y="282" class="small" text-anchor="start">901 (5.2%)</text>
<text x="165" y="316" class="" text-anchor="end">creatixchu</text>
<rect x="180" y="300" width="54.400000000000006" height="23" fill="#2563eb"/><rect x="234.4" y="300" width="44.0" height="23" fill="#93c5fd"/>
<text x="288.4" y="316" class="small" text-anchor="start">861 (5.0%)</text>
<text x="165" y="350" class="" text-anchor="end">Turtle</text>
<rect x="180" y="334" width="64.11428571428571" height="23" fill="#2563eb"/><rect x="244.1142857142857" y="334" width="24.685714285714287" height="23" fill="#93c5fd"/>
<text x="278.8" y="350" class="small" text-anchor="start">777 (4.5%)</text>
<text x="165" y="384" class="" text-anchor="end">pku-xht</text>
<rect x="180" y="368" width="52.22857142857143" height="23" fill="#2563eb"/><rect x="232.22857142857143" y="368" width="23.200000000000003" height="23" fill="#93c5fd"/>
<text x="265.42857142857144" y="384" class="small" text-anchor="start">660 (3.8%)</text>
<text x="165" y="418" class="" text-anchor="end">Hypatia May</text>
<rect x="180" y="402" width="33.82857142857143" height="23" fill="#2563eb"/><rect x="213.82857142857142" y="402" width="22.742857142857144" height="23" fill="#93c5fd"/>
<text x="246.57142857142856" y="418" class="small" text-anchor="start">495 (2.9%)</text>
<text x="165" y="452" class="" text-anchor="end">Dudu-0223</text>
<rect x="180" y="436" width="35.65714285714286" height="23" fill="#2563eb"/><rect x="215.65714285714284" y="436" width="9.37142857142857" height="23" fill="#93c5fd"/>
<text x="235.0285714285714" y="452" class="small" text-anchor="start">394 (2.3%)</text>
<text x="165" y="486" class="" text-anchor="end">ZiyaZhang</text>
<rect x="180" y="470" width="26.400000000000002" height="23" fill="#2563eb"/><rect x="206.4" y="470" width="18.057142857142857" height="23" fill="#93c5fd"/>
<text x="234.45714285714286" y="486" class="small" text-anchor="start">389 (2.3%)</text>
<text x="165" y="520" class="" text-anchor="end">kingwl</text>
<rect x="180" y="504" width="21.142857142857142" height="23" fill="#2563eb"/><rect x="201.14285714285714" y="504" width="13.37142857142857" height="23" fill="#93c5fd"/>
<text x="224.5142857142857" y="520" class="small" text-anchor="start">302 (1.8%)</text>
<text x="165" y="554" class="" text-anchor="end">Huanqi Cao</text>
<rect x="180" y="538" width="23.085714285714285" height="23" fill="#2563eb"/><rect x="203.0857142857143" y="538" width="8.457142857142857" height="23" fill="#93c5fd"/>
<text x="221.54285714285714" y="554" class="small" text-anchor="start">276 (1.6%)</text>
<text x="165" y="588" class="" text-anchor="end">07akioni</text>
<rect x="180" y="572" width="13.142857142857142" height="23" fill="#2563eb"/><rect x="193.14285714285714" y="572" width="8.457142857142857" height="23" fill="#93c5fd"/>
<text x="211.6" y="588" class="small" text-anchor="start">189 (1.1%)</text>
<text x="165" y="622" class="" text-anchor="end">NI0317</text>
<rect x="180" y="606" width="12.685714285714287" height="23" fill="#2563eb"/><rect x="192.68571428571428" y="606" width="8.457142857142857" height="23" fill="#93c5fd"/>
<text x="211.14285714285714" y="622" class="small" text-anchor="start">185 (1.1%)</text>
<text x="180" y="668" class="small" text-anchor="start">Blue: non-merge commits   Light blue: merge commits</text>
<text x="35" y="715" class="" text-anchor="start">Cumulative share by contributor rank</text>
<path d="M75 985 H600" stroke="#e5e7eb"/>
<text x="65" y="989" class="small" text-anchor="end">0%</text>
<path d="M75 945 H600" stroke="#e5e7eb"/>
<text x="65" y="949" class="small" text-anchor="end">20%</text>
<path d="M75 905 H600" stroke="#e5e7eb"/>
<text x="65" y="909" class="small" text-anchor="end">40%</text>
<path d="M75 865 H600" stroke="#e5e7eb"/>
<text x="65" y="869" class="small" text-anchor="end">60%</text>
<path d="M75 825 H600" stroke="#e5e7eb"/>
<text x="65" y="829" class="small" text-anchor="end">80%</text>
<path d="M75 785 H600" stroke="#e5e7eb"/>
<text x="65" y="789" class="small" text-anchor="end">100%</text>
<polyline points="75,985 88.46153846153847,912.6402399953399 101.92307692307692,889.8523329644084 115.38461538461539,867.7634414865731 128.84615384615384,855.7636744917575 142.30769230769232,845.2667909360983 155.76923076923077,835.2359177491699 169.23076923076923,826.183666336576 182.69230769230768,818.4944952525194 196.15384615384616,812.7276169394769 209.6153846153846,808.1374148074794 223.07692307692307,803.6054639715734 236.53846153846155,800.0870856876566 250.0,796.8716141434147 263.46153846153845,794.6697151511621 276.9230769230769,792.5144171957826 290.38461538461536,790.8018290906973 303.8461538461538,789.5785518727791 317.3076923076923,788.5649793207899 330.7692307692308,787.9824663598765 344.2307692307692,787.4698549542727 357.6923076923077,787.0970466592881 371.15384615384613,786.7475388827402 384.61538461538464,786.4096813654104 398.0769230769231,786.2232772179182 411.53846153846155,786.0368730704258 425.0,785.8854197005883 438.46153846153845,785.7339663307508 451.9230769230769,785.5941632201316 465.3846153846154,785.4543601095124 478.84615384615387,785.3262072581115 492.30769230769226,785.2097046659288 505.7692307692308,785.128152851401 519.2307692307693,785.1048523329644 532.6923076923076,785.0815518145279 546.1538461538462,785.0582512960914 559.6153846153846,785.0349507776548 573.0769230769231,785.0233005184366 586.5384615384615,785.0116502592183 600.0,785.0" fill="none" stroke="#2563eb" stroke-width="3"/>
<text x="88.46153846153847" y="1007" class="small" text-anchor="middle">1</text>
<text x="142.30769230769232" y="1007" class="small" text-anchor="middle">5</text>
<text x="209.6153846153846" y="1007" class="small" text-anchor="middle">10</text>
<text x="600.0" y="1007" class="small" text-anchor="middle">39</text>
<text x="75" y="1040" class="small" text-anchor="start">Top 5: 69.87% | Top 10: 88.43%</text>
<text x="690" y="715" class="" text-anchor="start">People by commit-count range</text>
<text x="775" y="782" class="small" text-anchor="end">1–5</text>
<rect x="790" y="765" width="130.0" height="25" fill="#14b8a6"/>
<text x="930.0" y="782" class="" text-anchor="start">7</text>
<text x="775" y="829" class="small" text-anchor="end">6–50</text>
<rect x="790" y="812" width="260.0" height="25" fill="#14b8a6"/>
<text x="1060.0" y="829" class="" text-anchor="start">14</text>
<text x="775" y="876" class="small" text-anchor="end">51–200</text>
<rect x="790" y="859" width="92.85714285714286" height="25" fill="#14b8a6"/>
<text x="892.8571428571429" y="876" class="" text-anchor="start">5</text>
<text x="775" y="923" class="small" text-anchor="end">201–1000</text>
<rect x="790" y="906" width="167.14285714285717" height="25" fill="#14b8a6"/>
<text x="967.1428571428571" y="923" class="" text-anchor="start">9</text>
<text x="775" y="970" class="small" text-anchor="end">1001+</text>
<rect x="790" y="953" width="74.28571428571428" height="25" fill="#14b8a6"/>
<text x="874.2857142857142" y="970" class="" text-anchor="start">4</text>
<text x="690" y="1040" class="small" text-anchor="start">Counts are estimates; commits do not measure work value.</text>
</svg>